<svg width="20" height="21" viewBox="0 0 20 21" fill="none" xmlns="http://www.w3.org/2000/svg">
<rect width="20" height="20" transform="translate(0 0.5)" fill="#1C1C1C"/>
<path d="M10.442 17.5167H5.17533C2.54199 17.5167 1.66699 15.7667 1.66699 14.0084V6.99173C1.66699 4.3584 2.54199 3.4834 5.17533 3.4834H10.442C13.0753 3.4834 13.9503 4.3584 13.9503 6.99173V14.0084C13.9503 16.6417 13.067 17.5167 10.442 17.5167Z" stroke="white" stroke-linecap="round" stroke-linejoin="round"/>
<path d="M16.2669 14.7499L13.9502 13.1249V7.86653L16.2669 6.24153C17.4002 5.44987 18.3335 5.9332 18.3335 7.32487V13.6749C18.3335 15.0665 17.4002 15.5499 16.2669 14.7499Z" stroke="white" stroke-linecap="round" stroke-linejoin="round"/>
<path d="M9.58301 9.66675C10.2734 9.66675 10.833 9.1071 10.833 8.41675C10.833 7.72639 10.2734 7.16675 9.58301 7.16675C8.89265 7.16675 8.33301 7.72639 8.33301 8.41675C8.33301 9.1071 8.89265 9.66675 9.58301 9.66675Z" stroke="white" stroke-linecap="round" stroke-linejoin="round"/>
</svg>
