<svg width="16" height="17" viewBox="0 0 16 17" fill="none" xmlns="http://www.w3.org/2000/svg">
<path d="M7.99992 9.64662C6.57992 9.64662 5.41992 8.49329 5.41992 7.06662C5.41992 5.63995 6.57992 4.49329 7.99992 4.49329C9.41992 4.49329 10.5799 5.64662 10.5799 7.07329C10.5799 8.49995 9.41992 9.64662 7.99992 9.64662ZM7.99992 5.49329C7.13326 5.49329 6.41992 6.19995 6.41992 7.07329C6.41992 7.94662 7.12659 8.65329 7.99992 8.65329C8.87326 8.65329 9.57992 7.94662 9.57992 7.07329C9.57992 6.19995 8.86659 5.49329 7.99992 5.49329Z" fill="#F2F2F2"/>
<path d="M8.00012 15.3733C7.01345 15.3733 6.02012 15 5.24678 14.26C3.28012 12.3667 1.10678 9.34666 1.92678 5.75333C2.66678 2.49333 5.51345 1.03333 8.00012 1.03333C8.00012 1.03333 8.00012 1.03333 8.00678 1.03333C10.4935 1.03333 13.3401 2.49333 14.0801 5.75999C14.8935 9.35333 12.7201 12.3667 10.7535 14.26C9.98012 15 8.98678 15.3733 8.00012 15.3733ZM8.00012 2.03333C6.06012 2.03333 3.56678 3.06666 2.90678 5.97333C2.18678 9.11333 4.16012 11.82 5.94678 13.5333C7.10012 14.6467 8.90678 14.6467 10.0601 13.5333C11.8401 11.82 13.8135 9.11333 13.1068 5.97333C12.4401 3.06666 9.94012 2.03333 8.00012 2.03333Z" fill="#F2F2F2"/>
</svg>
