<svg width="55" height="55" viewBox="0 0 55 55" fill="none" xmlns="http://www.w3.org/2000/svg">
<path d="M16.0416 27.4999V29.7916H38.9582V27.4999C38.9582 25.6793 39.6804 23.9331 40.9662 22.6442C42.2521 21.3554 43.9966 20.6292 45.8172 20.6249C45.8146 20.0256 45.761 19.4276 45.6568 18.8374C45.3031 17.0591 44.4301 15.4256 43.148 14.1435C41.8659 12.8614 40.2324 11.9884 38.4541 11.6347C37.5695 11.4583 36.5062 11.4583 34.3749 11.4583H20.6249C18.4937 11.4583 17.4303 11.4583 16.5457 11.6347C14.7674 11.9884 13.1339 12.8614 11.8518 14.1435C10.5698 15.4256 9.69668 17.0591 9.34303 18.8374C9.23885 19.4276 9.18518 20.0256 9.18262 20.6249C11.0032 20.6292 12.7478 21.3554 14.0336 22.6442C15.3195 23.9331 16.0416 25.6793 16.0416 27.4999Z" fill="white"/>
<path d="M42.2677 41.2501H12.7327C12.111 41.2496 11.4914 41.1789 10.8856 41.0393V43.5417C10.8856 43.9976 10.7045 44.4348 10.3822 44.7571C10.0598 45.0794 9.62267 45.2605 9.16683 45.2605C8.71099 45.2605 8.27382 45.0794 7.95149 44.7571C7.62916 44.4348 7.44808 43.9976 7.44808 43.5417V39.3045C6.54931 38.54 5.82757 37.5892 5.33292 36.518C4.83828 35.4468 4.58256 34.2808 4.5835 33.1009V27.5001C4.5835 26.2845 5.06638 25.1187 5.92593 24.2592C6.78547 23.3996 7.95126 22.9167 9.16683 22.9167C10.3824 22.9167 11.5482 23.3996 12.4077 24.2592C13.2673 25.1187 13.7502 26.2845 13.7502 27.5001V30.2501C13.7502 30.7363 13.9433 31.2026 14.2871 31.5464C14.631 31.8903 15.0973 32.0834 15.5835 32.0834H39.4168C39.9031 32.0834 40.3694 31.8903 40.7132 31.5464C41.057 31.2026 41.2502 30.7363 41.2502 30.2501V27.5001C41.2502 26.2845 41.7331 25.1187 42.5926 24.2592C43.4521 23.3996 44.6179 22.9167 45.8335 22.9167C47.0491 22.9167 48.2149 23.3996 49.0744 24.2592C49.9339 25.1187 50.4168 26.2845 50.4168 27.5001V33.1009C50.4178 34.2808 50.1621 35.4468 49.6674 36.518C49.1728 37.5892 48.451 38.54 47.5523 39.3045V43.5417C47.5523 43.9976 47.3712 44.4348 47.0488 44.7571C46.7265 45.0794 46.2893 45.2605 45.8335 45.2605C45.3777 45.2605 44.9405 45.0794 44.6182 44.7571C44.2958 44.4348 44.1148 43.9976 44.1148 43.5417V41.0393C43.509 41.1789 42.8893 41.2496 42.2677 41.2501Z" fill="white"/>
</svg>
