<svg width="55" height="56" viewBox="0 0 55 56" fill="none" xmlns="http://www.w3.org/2000/svg">
<path d="M16.0416 27.7257V30.0174H38.9582V27.7257C38.9582 25.9052 39.6804 24.1589 40.9662 22.8701C42.2521 21.5812 43.9966 20.855 45.8172 20.8507C45.8146 20.2514 45.761 19.6534 45.6568 19.0632C45.3031 17.2849 44.4301 15.6514 43.148 14.3693C41.8659 13.0873 40.2324 12.2142 38.4541 11.8605C37.5695 11.6841 36.5062 11.6841 34.3749 11.6841H20.6249C18.4937 11.6841 17.4303 11.6841 16.5457 11.8605C14.7674 12.2142 13.1339 13.0873 11.8518 14.3693C10.5698 15.6514 9.69668 17.2849 9.34303 19.0632C9.23885 19.6534 9.18518 20.2514 9.18262 20.8507C11.0032 20.855 12.7478 21.5812 14.0336 22.8701C15.3195 24.1589 16.0416 25.9052 16.0416 27.7257Z" fill="#EEEC00"/>
<path d="M42.2677 41.4757H12.7327C12.111 41.4752 11.4914 41.4045 10.8856 41.2648V43.7673C10.8856 44.2232 10.7045 44.6603 10.3822 44.9827C10.0598 45.305 9.62267 45.4861 9.16683 45.4861C8.71099 45.4861 8.27382 45.305 7.95149 44.9827C7.62916 44.6603 7.44808 44.2232 7.44808 43.7673V39.53C6.54931 38.7656 5.82757 37.8148 5.33292 36.7436C4.83828 35.6724 4.58256 34.5064 4.5835 33.3265V27.7257C4.5835 26.5101 5.06638 25.3443 5.92593 24.4848C6.78547 23.6252 7.95126 23.1423 9.16683 23.1423C10.3824 23.1423 11.5482 23.6252 12.4077 24.4848C13.2673 25.3443 13.7502 26.5101 13.7502 27.7257V30.4757C13.7502 30.9619 13.9433 31.4282 14.2871 31.772C14.631 32.1158 15.0973 32.309 15.5835 32.309H39.4168C39.9031 32.309 40.3694 32.1158 40.7132 31.772C41.057 31.4282 41.2502 30.9619 41.2502 30.4757V27.7257C41.2502 26.5101 41.7331 25.3443 42.5926 24.4848C43.4521 23.6252 44.6179 23.1423 45.8335 23.1423C47.0491 23.1423 48.2149 23.6252 49.0744 24.4848C49.9339 25.3443 50.4168 26.5101 50.4168 27.7257V33.3265C50.4178 34.5064 50.1621 35.6724 49.6674 36.7436C49.1728 37.8148 48.451 38.7656 47.5523 39.53V43.7673C47.5523 44.2232 47.3712 44.6603 47.0488 44.9827C46.7265 45.305 46.2893 45.4861 45.8335 45.4861C45.3777 45.4861 44.9405 45.305 44.6182 44.9827C44.2958 44.6603 44.1148 44.2232 44.1148 43.7673V41.2648C43.509 41.4045 42.8893 41.4752 42.2677 41.4757Z" fill="#EEEC00"/>
</svg>
