<svg width="48" height="48" viewBox="0 0 48 48" fill="none" xmlns="http://www.w3.org/2000/svg">
<path d="M24.0101 35.7666C22.3126 35.7666 20.6151 35.7692 18.9176 35.7658C18.2447 35.7641 18.2559 35.7572 18.3047 36.4138C18.3329 36.7973 18.3449 37.1859 18.3158 37.5677C18.2516 38.4083 18.2738 39.2455 18.3132 40.087C18.3672 41.2392 18.2405 42.3906 18.3021 43.5479C18.3586 44.6257 17.7183 45.5228 16.84 45.8489C15.3453 46.4036 13.8105 45.3695 13.7788 43.7499C13.748 42.2099 13.7677 40.6691 13.7668 39.1282C13.766 38.1729 13.7565 37.2167 13.7737 36.2614C13.7805 35.8933 13.6521 35.7478 13.2772 35.7632C12.7789 35.7846 12.279 35.7735 11.7799 35.7589C11.1576 35.7409 10.8589 35.479 10.8708 34.8738C10.8803 34.4047 10.6911 34.3062 10.2648 34.2951C8.78211 34.2566 8.01082 33.3852 7.92778 31.9068C7.84047 30.3531 8.00654 28.8028 7.89953 27.2492C7.84218 26.4137 7.91066 25.5679 7.94833 24.7282C7.96631 24.3327 7.85673 24.0861 7.4484 23.9637C7.01268 23.8328 6.71392 23.5006 6.58637 23.0743C6.35696 22.3107 6.33727 21.5206 6.52902 20.7502C6.72676 19.9575 7.2712 19.562 8.09471 19.5569C9.47807 19.5475 10.8623 19.5569 12.2456 19.5603C12.8568 19.562 12.8466 19.5423 12.8637 18.9406C12.8877 18.1008 12.9827 17.2636 13.0126 16.423C13.0734 14.7007 13.2395 12.9843 13.2857 11.2603C13.3182 10.0507 13.3653 8.8343 13.5271 7.63672C13.9046 4.83751 15.9009 2.72655 18.5024 2.1804C19.7265 1.92359 21.0012 2.00491 22.2553 2.04258C22.8827 2.06141 23.5085 2.06826 24.136 2.04429C24.6479 2.0246 25.1624 2.02032 25.6751 2.04172C26.3172 2.06826 26.9566 2.06569 27.5986 2.03916C30.1462 1.93472 32.2452 2.7839 33.6671 4.98646C34.215 5.83564 34.5522 6.77384 34.6113 7.79423C34.7585 10.3409 34.8861 12.8884 35.0504 15.4334C35.1249 16.5848 35.1737 17.7361 35.2225 18.8883C35.2533 19.6117 35.2662 19.6262 35.9827 19.6297C37.2804 19.6365 38.579 19.6297 39.8768 19.6382C41.0727 19.6459 41.6342 20.2109 41.6394 21.3956C41.6411 21.7381 41.6334 22.0805 41.6471 22.4229C41.6787 23.2096 41.3064 23.7728 40.5453 23.9877C40.2706 24.0656 40.1927 24.1615 40.2201 24.4534C40.2766 25.0637 40.1747 25.6809 40.1978 26.2887C40.262 28.0119 40.1285 29.7359 40.2355 31.4582C40.2637 31.9154 40.2432 32.3759 40.0788 32.8091C39.7056 33.7926 38.9471 34.3062 37.8608 34.3011C37.4944 34.2994 37.2607 34.2883 37.295 34.8053C37.3403 35.4722 36.9945 35.7572 36.3191 35.7649C35.8483 35.7701 35.3757 35.7872 34.9075 35.7538C34.4803 35.7238 34.3425 35.8608 34.3459 36.3034C34.3673 38.6994 34.3579 41.0963 34.3553 43.4923C34.3545 44.1497 34.2269 44.7678 33.7621 45.2737C33.0781 46.0184 32.2307 46.1057 31.3258 45.8326C30.3953 45.5519 29.9391 44.8491 29.8757 43.9169C29.8158 43.0232 29.7516 42.1278 29.8406 41.2264C29.9048 40.5758 29.8286 39.9166 29.8098 39.2618C29.7858 38.422 29.838 37.5805 29.8543 36.7399C29.8569 36.5833 29.8423 36.4266 29.8372 36.27C29.8261 35.9044 29.6626 35.7529 29.2739 35.7564C27.5199 35.7735 25.765 35.7641 24.0101 35.7641C24.0101 35.7683 24.0101 35.7675 24.0101 35.7666ZM23.9759 3.64678C23.9759 3.64421 23.9759 3.64164 23.9759 3.63821C22.6062 3.63821 21.2374 3.63308 19.8678 3.64164C19.5416 3.64335 19.2078 3.65362 18.8902 3.72039C16.608 4.20234 15.0012 6.29019 15.0183 8.71018C15.0303 10.3649 14.8514 12.0119 14.7863 13.664C14.6845 16.2834 14.4456 18.8978 14.3463 21.5163C14.2856 23.1248 14.1041 24.7264 14.0904 26.3375C14.087 26.7133 14.1537 26.8306 14.5372 26.8502C16.3888 26.9461 18.2413 26.8049 20.0929 26.8879C20.7461 26.917 21.4052 26.8203 22.0584 26.8528C23.7824 26.9393 25.5065 26.8734 27.2288 26.8699C28.8656 26.8665 30.5049 26.9538 32.1425 26.8494C32.6518 26.8169 33.1672 26.8725 33.6799 26.8999C33.9539 26.9144 34.0823 26.8126 34.0566 26.5301C34.0266 26.2039 34.0001 25.8769 33.9795 25.5499C33.8255 23.1471 33.7416 20.7399 33.5815 18.3371C33.3778 15.2947 33.2776 12.2456 33.1072 9.20068C33.0584 8.3224 33.0739 7.41843 32.6886 6.5975C31.7932 4.69027 30.3037 3.66304 28.1696 3.64763C26.7717 3.63821 25.3738 3.64678 23.9759 3.64678ZM24.0564 34.1838C24.0564 34.1821 24.0564 34.1796 24.0564 34.1778C24.2986 34.1778 24.5409 34.1778 24.784 34.1778C28.2347 34.1778 31.6854 34.1727 35.1361 34.1847C35.5341 34.1864 35.6976 34.0777 35.6873 33.6548C35.6625 32.7003 35.6916 31.7442 35.6754 30.7888C35.6505 29.3319 34.7851 28.4835 33.3392 28.4801C31.9987 28.4767 30.659 28.4784 29.3184 28.4784C24.4279 28.4767 19.5374 28.4698 14.646 28.475C13.3302 28.4758 12.4468 29.3687 12.4374 30.6793C12.4305 31.6774 12.4494 32.6755 12.4288 33.6736C12.4203 34.058 12.5324 34.1941 12.9347 34.1932C16.6414 34.1778 20.3489 34.1838 24.0564 34.1838ZM9.526 28.1334C9.526 29.3293 9.52258 30.5252 9.52772 31.7219C9.53114 32.4761 9.74087 32.6832 10.4865 32.7209C10.7347 32.7337 10.8648 32.6601 10.8563 32.3913C10.8434 31.9787 10.858 31.5652 10.8349 31.1535C10.7613 29.8138 11.1345 28.6513 12.166 27.7474C12.2884 27.6404 12.3886 27.5385 12.398 27.3622C12.4511 26.3674 12.5084 25.3736 12.5701 24.3798C12.5846 24.1384 12.4862 24.0279 12.2482 24.0553C11.4949 24.1426 10.7416 24.1075 9.98912 24.0476C9.64157 24.0194 9.51316 24.1418 9.51916 24.503C9.53713 25.7126 9.526 26.923 9.526 28.1334ZM38.5996 28.2576C38.6004 28.2576 38.6013 28.2576 38.6021 28.2576C38.6021 27.0309 38.603 25.8033 38.6013 24.5766C38.6013 24.3618 38.6235 24.1306 38.3077 24.1067C37.5535 24.0493 36.7993 24.0313 36.0426 24.0647C35.6685 24.0819 35.511 24.2291 35.5469 24.6229C35.6223 25.4455 35.6779 26.2707 35.7139 27.0959C35.7276 27.4058 35.8234 27.6369 36.0597 27.8372C36.8884 28.5392 37.2059 29.4791 37.2624 30.5277C37.2941 31.1107 37.3147 31.6954 37.3249 32.2792C37.3301 32.5634 37.4568 32.6901 37.7324 32.7183C38.2743 32.7748 38.591 32.5274 38.5961 31.9813C38.6073 30.74 38.5996 29.4988 38.5996 28.2576ZM31.4354 39.8798C31.4371 39.8798 31.4397 39.8798 31.4414 39.8798C31.4414 41.1202 31.4363 42.3606 31.444 43.601C31.4474 44.1095 31.6837 44.3706 32.1014 44.3714C32.5209 44.3723 32.7683 44.1035 32.764 43.6078C32.7588 42.9958 32.6809 42.3811 32.7186 41.7725C32.8247 40.0647 32.6672 38.3561 32.7588 36.6483C32.8051 35.7889 32.6989 35.7435 31.8377 35.7589C31.5082 35.7649 31.4286 35.9036 31.4311 36.2015C31.4414 37.4273 31.4354 38.6531 31.4354 39.8798ZM16.685 39.9346C16.6833 39.9346 16.6816 39.9346 16.6799 39.9346C16.6799 38.6814 16.6808 37.4282 16.679 36.1749C16.679 35.9798 16.6559 35.7683 16.4008 35.7837C16.0601 35.8051 15.6929 35.6339 15.3839 35.8993C15.3513 35.9267 15.3513 36.0089 15.3582 36.0628C15.5157 37.2005 15.2726 38.339 15.3607 39.4741C15.4061 40.0579 15.4489 40.6426 15.3916 41.2221C15.3043 42.0927 15.3685 42.9573 15.4241 43.8227C15.4515 44.243 15.7066 44.4313 16.1209 44.3757C16.5395 44.3192 16.6859 44.0418 16.685 43.6523C16.6842 42.4128 16.685 41.1741 16.685 39.9346ZM37.7487 22.4811C37.7487 22.4819 37.7487 22.4819 37.7487 22.4828C37.8625 22.4828 37.9764 22.4828 38.0902 22.4828C38.4891 22.4828 38.8881 22.4854 39.287 22.4819C40.0634 22.4742 40.048 22.4725 40.06 21.7055C40.0651 21.3546 39.9709 21.1637 39.5909 21.1714C39.3495 21.1765 39.1081 21.1457 38.8667 21.138C37.9841 21.1072 37.1032 21.2501 36.2206 21.1791C35.3235 21.1063 35.3021 21.1226 35.3989 22.024C35.4006 22.0385 35.4023 22.0522 35.4031 22.0668C35.4194 22.3612 35.5641 22.4922 35.8697 22.4862C36.4946 22.4717 37.1221 22.4811 37.7487 22.4811ZM10.3358 22.4802C10.3358 22.4811 10.3358 22.4819 10.3358 22.4819C10.65 22.4819 10.9633 22.4837 11.2775 22.4819C11.6053 22.4802 11.934 22.4665 12.2619 22.4742C12.5512 22.4811 12.6617 22.3535 12.6779 22.0668C12.7293 21.1671 12.7361 21.1662 11.8159 21.138C11.7157 21.1346 11.6164 21.1346 11.5163 21.1363C10.6611 21.1525 9.8025 21.2244 8.9516 21.1722C7.96203 21.1114 8.06903 21.0412 8.05619 22.0633C8.05191 22.3835 8.19144 22.4896 8.49534 22.4837C9.10911 22.4717 9.72289 22.4802 10.3358 22.4802Z" fill="white"/>
<path d="M20.142 4.92923C21.807 5.07047 23.4737 4.91125 25.1412 4.96261C26.1771 4.99428 27.2188 4.95405 28.2589 4.97888C30.1234 5.02339 31.4177 6.14307 31.6788 7.9784C31.7541 8.50742 31.5067 8.92259 31.0702 8.99792C30.6182 9.07582 30.2432 8.79847 30.1148 8.28999C29.7767 6.95373 29.2879 6.56681 27.9259 6.56424C25.3441 6.55996 22.7632 6.55739 20.1814 6.55568C18.8305 6.55482 18.2647 7.01023 17.9762 8.32081C17.8555 8.86952 17.5628 9.09637 17.0877 9.00991C16.5364 8.9089 16.3326 8.61785 16.4045 8.03147C16.6297 6.18416 18.15 4.92238 20.142 4.92923Z" fill="white"/>
</svg>
