<svg width="18" height="18" viewBox="0 0 18 18" fill="none" xmlns="http://www.w3.org/2000/svg">
<path fill-rule="evenodd" clip-rule="evenodd" d="M18 9C18 10.1819 17.7672 11.3522 17.3149 12.4442C16.8626 13.5361 16.1997 14.5282 15.364 15.364C14.5282 16.1997 13.5361 16.8626 12.4442 17.3149C11.3522 17.7672 10.1819 18 9 18C7.8181 18 6.64778 17.7672 5.55585 17.3149C4.46392 16.8626 3.47177 16.1997 2.63604 15.364C1.80031 14.5282 1.13738 13.5361 0.685084 12.4442C0.232792 11.3522 -1.76116e-08 10.1819 0 9C3.55683e-08 6.61305 0.948211 4.32387 2.63604 2.63604C4.32387 0.948212 6.61305 0 9 0C11.3869 0 13.6761 0.948212 15.364 2.63604C17.0518 4.32387 18 6.61305 18 9ZM9.5 8.793V3.97C9.5 3.83739 9.44732 3.71021 9.35355 3.61645C9.25979 3.52268 9.13261 3.47 9 3.47C8.86739 3.47 8.74021 3.52268 8.64645 3.61645C8.55268 3.71021 8.5 3.83739 8.5 3.97V8.985C8.49786 9.05321 8.50972 9.12114 8.53482 9.1846C8.55993 9.24807 8.59777 9.30571 8.646 9.354L11.475 12.182C11.5211 12.2298 11.5763 12.2678 11.6373 12.2941C11.6983 12.3203 11.7639 12.334 11.8303 12.3346C11.8967 12.3352 11.9625 12.3226 12.024 12.2974C12.0854 12.2723 12.1413 12.2351 12.1882 12.1882C12.2351 12.1413 12.2723 12.0854 12.2974 12.024C12.3226 11.9625 12.3352 11.8967 12.3346 11.8303C12.334 11.7639 12.3203 11.6983 12.2941 11.6373C12.2678 11.5763 12.2298 11.5211 12.182 11.475L9.5 8.793Z" fill="black"/>
</svg>
